<svg width="52" height="53" viewBox="0 0 52 53" fill="none" xmlns="http://www.w3.org/2000/svg">
    <path d="M24.636 52.496C15.5757 52.0411 7.29513 46.8081 3.06496 38.7484C-1.47712 30.3921 -0.987606 19.5491 4.65046 11.7732C10.2842 3.46016 20.5705 -0.94979 30.9326 1.06025C40.8593 2.9165 49.0207 10.7942 51.2019 20.3614C53.6321 29.7704 50.2857 40.23 42.7004 46.4399C37.7424 50.67 31.2315 52.8425 24.636 52.4981V52.496ZM41.325 35.0598C39.0398 33.6902 36.7503 32.3278 34.4566 30.9725C32.5007 34.1847 28.2077 35.8417 24.5581 34.5789C20.1741 33.1948 17.2067 28.1091 19.1691 23.4587C20.904 19.1073 25.2122 17.5954 28.6063 18.1217C30.8936 18.5536 32.9276 19.8477 34.2877 21.7368C36.6204 20.37 38.8969 19.0986 41.1603 17.7189C36.7634 10.9653 27.8374 8.41811 20.2456 11.7537C13.466 14.8359 9.65389 21.8906 10.7412 28.9062C11.9109 36.6994 18.8204 42.9548 27.454 42.7772C30.2266 42.7516 32.9487 42.0319 35.3717 40.6838C37.7947 39.3358 39.8414 37.4022 41.325 35.0598Z" fill="#3340B4"/>
</svg>
