<svg width="24" height="24" viewBox="0 0 26 26" fill="none" xmlns="http://www.w3.org/2000/svg">
    <mask id="mask0_79_60" style="mask-type:luminance" maskUnits="userSpaceOnUse" x="0" y="0" width="26" height="26">
        <path d="M25 13C25.002 14.5806 24.6908 16.1459 24.0843 17.6055C23.4778 19.0651 22.5881 20.3901 21.4666 21.5038C20.3542 22.6142 19.0339 23.4945 17.5812 24.0944C16.1285 24.6943 14.5717 25.002 13 25C6.37241 25 1.00001 19.6276 1.00001 13C0.995815 9.92306 2.17773 6.9629 4.30001 4.73501C5.41981 3.55337 6.76896 2.61265 8.26488 1.97044C9.76081 1.32822 11.372 0.99801 13 1.00001C14.5717 0.997975 16.1285 1.3057 17.5812 1.9056C19.0339 2.50549 20.3542 3.3858 21.4666 4.49621C22.5881 5.60994 23.4778 6.93489 24.0843 8.39449C24.6908 9.8541 25.002 11.4194 25 13Z" fill="white" stroke="white" stroke-width="1.58333" stroke-linecap="round" stroke-linejoin="round"/>
        <path d="M25 13C23.2492 13 18.4192 12.34 14.0962 14.2378C9.40002 16.3 5.99982 19.4986 4.51782 21.4882" stroke="black" stroke-width="1.58333" stroke-linecap="round" stroke-linejoin="round"/>
        <path d="M8.5 1.87238C10.378 3.60577 14.476 8.01877 16 12.4C17.524 16.7812 18.088 22.168 18.436 23.701" stroke="black" stroke-width="1.58333" stroke-linecap="round" stroke-linejoin="round"/>
        <path d="M1.09241 11.5C3.35921 11.6368 9.3598 11.7598 13.1998 10.12C17.0398 8.48022 20.344 5.46402 21.4774 4.50702" stroke="black" stroke-width="1.58333" stroke-linecap="round" stroke-linejoin="round"/>
        <path d="M1.90001 17.5678C2.9574 20.1273 4.86443 22.2443 7.30001 23.5624M1.00001 13C0.995815 9.92306 2.17773 6.9629 4.30001 4.73501C5.41981 3.55337 6.76896 2.61265 8.26488 1.97044C9.76081 1.32822 11.372 0.998009 13 1.00001M17.8 1.99841C19.1666 2.59633 20.4099 3.44335 21.4666 4.49621C22.5881 5.60994 23.4778 6.93489 24.0843 8.39449C24.6908 9.85409 25.002 11.4194 25 13C25 14.4772 24.733 15.8926 24.244 17.2M13 25C14.5717 25.002 16.1285 24.6943 17.5812 24.0944C19.0339 23.4945 20.3542 22.6142 21.4666 21.5038" stroke="white" stroke-width="1.58333" stroke-linecap="round" stroke-linejoin="round"/>
    </mask>
    <g mask="url(#mask0_79_60)">
        <path d="M-1.40002 -1.39996H27.4V27.4H-1.40002V-1.39996Z" fill="#F8F8F8"/>
    </g>
</svg>
